PathFileType	4	(X/Y/Z)	Patient4_TMGait_0pt4_01_right_29.trc.trc
DataRate	CameraRate	NumFrames	NumMarkers	Units	OrigDataRate	OrigDataStartFrame	OrigNumFrames
74.074074074074	74.074074074074	4	33	mm	74.074074074074	1	       141
Frame#	Time	Sacral			L.Shoulder			Chest			R.Shoulder			Neck			R.ASIS			L.ASIS			R.Thigh.Superior			R.Thigh.Lateral			R.Thigh.Inferior			R.Patella			L.Thigh.Superior			L.Thigh.Lateral			L.Thigh.Inferior			L.Patella			L.Shank.Superior			L.Shank.Lateral			L.Shank.Inferior			R.Shank.Superior			R.Shank.Lateral			R.Shank.Inferior			R.Heel			R.Midfoot.Superior			R.Midfoot.Lateral			R.Toe			L.Heel			L.Midfoot.Lateral			L.Midfoot.Superior			L.Toe			L.Elbow			L.Wrist			R.Elbow			R.Wrist			
		X1	Y1	Z1	X2	Y2	Z2	X3	Y3	Z3	X4	Y4	Z4	X5	Y5	Z5	X6	Y6	Z6	X7	Y7	Z7	X8	Y8	Z8	X9	Y9	Z9	X10	Y10	Z10	X11	Y11	Z11	X12	Y12	Z12	X13	Y13	Z13	X14	Y14	Z14	X15	Y15	Z15	X16	Y16	Z16	X17	Y17	Z17	X18	Y18	Z18	X19	Y19	Z19	X20	Y20	Z20	X21	Y21	Z21	X22	Y22	Z22	X23	Y23	Z23	X24	Y24	Z24	X25	Y25	Z25	X26	Y26	Z26	X27	Y27	Z27	X28	Y28	Z28	X29	Y29	Z29	X30	Y30	Z30	X31	Y31	Z31	X32	Y32	Z32	X33	Y33	Z33	

1	37.410000000000	887.694031818482	1004.563189448175	458.536802615324	1071.686923608552	1432.159234390100	264.578159574481	1165.209438997628	1370.637985447696	433.427315632011	1070.805095010060	1448.424551231686	599.972759435178	1048.601779063153	1498.849061055153	417.338571693950	1116.121200608922	952.309569194408	580.674438027479	1106.745987895806	965.398001091582	305.658657201476	1201.357197677480	778.561885219286	559.821063838918	1157.732942265998	658.562230702285	636.881854327171	1252.165723959566	618.402211933941	564.545229505703	1270.693774102815	508.696972131837	589.941305667028	1154.589617806516	751.091738569241	334.629150275610	1063.392202576234	635.140591406429	280.264088474928	1147.806767545955	557.460427248901	342.994449263421	1146.858502564990	488.303105469383	354.545156072071	1117.568233734713	415.999424332297	348.803913353888	1023.337333539107	303.265059755658	299.956826528772	1071.027357575755	192.626253788118	375.424694470906	1199.546980522898	430.091423600572	596.676062832059	1080.050247813145	385.502274315312	658.215773607100	1072.253512202942	274.048808043131	611.431150523740	874.849116406220	200.609190549035	585.671957148943	1047.877655003206	153.919705474018	628.664496468342	937.649030571088	145.533034922786	659.956225458879	1118.412173501087	44.292996898977	653.824961127065	938.793179149394	39.024916105462	420.854409336788	1013.247918957522	35.897141586391	340.457443416761	1096.687022424950	96.043298584002	367.383999248931	1225.212783047934	43.894384789173	340.695622266717	1085.695436272508	1080.764224120776	144.272607602534	1239.631400332865	867.438317340533	149.726049309536	1012.674580428725	1108.169186479074	726.906806779856	1074.602950414811	856.777895183628	760.663424948808	
2	37.423500000000	887.006943431570	1005.404722456451	457.139142366201	1073.533049558219	1432.266740115005	263.571849322564	1165.276486927896	1371.012838800772	433.409811206796	1069.419041285375	1449.304360924284	598.815042755177	1048.897316677550	1499.243214373875	416.045986387579	1114.604749335631	953.175645972048	580.715850342255	1106.677253943219	965.277591586718	305.713964145724	1200.420672472619	780.320374421777	559.420591620212	1158.391094505758	660.249330855136	637.057089979410	1251.951141705907	620.318224897435	563.720166529093	1272.357368149381	512.086680876596	589.658726193718	1151.975425791810	750.438709300211	335.462255916825	1059.753026780737	635.418228065161	280.000995608830	1142.799828009492	556.899642069038	343.145246503867	1140.945828386236	487.954636304052	354.580151906494	1111.782941674156	416.006450336675	348.659517588464	1017.539948073461	303.333292841151	299.726167263778	1065.189356021923	192.665384841782	375.298082611787	1204.191321651654	431.900669161654	597.335412155299	1087.672985642168	382.084851946304	659.599762093034	1084.926726626109	270.507335768143	613.254715103887	891.826381521281	187.690357857028	588.407973911949	1066.386410712257	149.690271213344	631.244780406450	957.100764642374	136.454794742450	663.009072095970	1141.867639370697	44.191550639008	657.260506260499	933.012812106519	39.030891382512	420.807892472155	1007.480484027223	35.876528128042	340.403551692858	1090.909180394401	96.028959151892	367.382471134187	1219.456744592449	43.923825239795	340.665285450955	1091.510928895050	1081.103836619704	143.636558590849	1249.097404614663	870.733717080932	152.096372293837	1005.843327524328	1111.213478344710	727.478027793158	1062.121506337998	859.437563272637	765.122884369259	
3	37.437000000000	886.315121257689	1006.211111323817	455.789051265471	1075.370724661099	1432.313039922217	262.601958434630	1165.357544143863	1371.336506853896	433.417372219350	1068.071005262994	1450.143458632691	597.688698141407	1049.212047600681	1499.591960602819	414.783156168255	1113.092886158913	953.976001436069	580.797992949161	1106.618064068013	965.148353328091	305.812442189235	1199.406291738760	781.943367057043	559.033870381317	1158.907075995264	661.828011219270	637.241993224830	1251.546614877513	622.079413331532	562.897133066404	1273.818939164439	515.375651584024	589.369345130901	1149.378516687190	749.774941300330	336.315988015295	1056.179403548904	635.670906668385	279.756991562355	1137.867821503214	556.330252261177	343.321394542518	1135.120354806026	487.595644132311	354.636293164188	1106.084409825301	415.992736525713	348.535994138555	1011.822164196273	303.389617534328	299.506512709445	1059.400338392425	192.687535783853	375.182319654541	1208.706981054199	433.615051065335	597.991812581414	1095.272500549435	378.564857461743	661.017681645171	1097.630498176053	266.919737200887	615.092593472935	908.995106286932	174.687795286834	591.197752312358	1084.995457340353	145.488042836685	633.828502533425	976.725393224967	127.372151256607	666.100516431731	1165.420222258681	44.230921422142	660.687460807288	927.264674190097	39.033246742763	420.763941695211	1001.743022080956	35.855349243258	340.352373322356	1085.161480791805	96.011520049994	367.383210516623	1213.730863929022	43.945674815242	340.637497994402	1097.243163750287	1081.381861190452	143.053587428792	1258.445618467396	873.972226556917	154.476968614242	999.068346878816	1114.227308877882	728.059686362143	1049.878250305019	862.095891376994	769.455789857595	
4	37.450500000000	885.623227530616	1006.951760970219	454.537497432160	1077.186796232871	1432.249801289187	261.717169624526	1165.470680612603	1371.563408246219	433.481185700846	1066.812117419904	1450.903648826728	596.639698380373	1049.568093048074	1499.857109082356	413.595153529746	1111.598137797975	954.651987621793	580.964646194428	1106.583790256524	965.005641184322	305.994025563006	1198.235018814388	783.290403508222	558.704126757335	1159.112085072620	663.184423024369	637.465487833763	1250.773086107286	623.528697684510	562.120176269823	1274.859100951525	518.446410234215	589.082340880189	1146.828375171886	749.092327661580	337.204083156773	1052.731186894870	635.879728817636	279.556708095239	1133.079386744243	555.748334282126	343.545616541482	1129.463206763695	487.222665523745	354.736271443857	1100.552305850986	415.944660544158	348.455782724864	1006.260730100669	303.426987802262	299.311102178779	1053.713042249993	192.680769176889	375.089099620968	1212.932749458214	435.160492279960	598.641376388467	1102.795599024436	374.895598929273	662.484185515146	1110.329210964615	263.319266815061	616.925695197003	926.477311796045	161.677697535294	594.045445256559	1103.718478723524	141.420392355396	636.358439366713	996.616257333351	118.391251687754	669.198075109125	1189.039622454518	44.594062131213	663.990715427100	921.589546553148	39.029747730851	420.724295579828	996.073805590144	35.833642490942	340.305829297264	1079.482505699641	95.988893274615	367.388029429086	1208.073819578996	43.953961659481	340.614002360204	1102.788380316951	1081.545628273201	142.588131660237	1267.514563750057	877.081086904952	156.874665653917	992.452245992956	1117.159754972697	728.650091966152	1038.148666594826	864.723664996866	773.522886541897	
